<mxfile host="app.diagrams.net" modified="2024-02-10T12:45:18.422Z" agent="Mozilla/5.0 (Windows NT 10.0; Win64; x64) AppleWebKit/537.36 (KHTML, like Gecko) Chrome/121.0.0.0 Safari/537.36" etag="UE14mJA9F7j8D4A-GB1K" version="23.1.1" type="github">
  <diagram id="6a731a19-8d31-9384-78a2-239565b7b9f0" name="Page-1">
    <mxGraphModel dx="3457" dy="2657" grid="1" gridSize="10" guides="1" tooltips="1" connect="1" arrows="1" fold="1" page="1" pageScale="1" pageWidth="1169" pageHeight="827" background="none" math="0" shadow="0">
      <root>
        <mxCell id="0" />
        <mxCell id="1" parent="0" />
        <mxCell id="1749" value="Incremental Potential Contact: Intersection- and Inversion-free,&lt;br/&gt;Large-Deformation Dynamics" style="rounded=1;whiteSpace=wrap;html=1;shadow=0;labelBackgroundColor=none;strokeColor=none;strokeWidth=3;fillColor=#2F5B7C;fontFamily=Helvetica;fontSize=16;fontColor=#FFFFFF;align=center;fontStyle=1;spacing=5;arcSize=7;perimeterSpacing=2;" parent="1" vertex="1">
          <mxGeometry x="480" y="360" width="520" height="80" as="geometry" />
        </mxCell>
        <mxCell id="SvjpMgCOooim5OPrCzL7-1786" value="University of Pennsylvania&amp;nbsp;" style="swimlane;fontStyle=0;childLayout=stackLayout;horizontal=1;startSize=30;horizontalStack=0;resizeParent=1;resizeParentMax=0;resizeLast=0;collapsible=1;marginBottom=0;whiteSpace=wrap;html=1;" parent="1" vertex="1">
          <mxGeometry x="1040" y="360" width="170" height="90" as="geometry">
            <mxRectangle x="1040" y="360" width="60" height="30" as="alternateBounds" />
          </mxGeometry>
        </mxCell>
        <mxCell id="SvjpMgCOooim5OPrCzL7-1787" value="MINCHEN LI&lt;br&gt;&lt;br&gt;CHENFANFU JIANG" style="text;strokeColor=none;fillColor=none;align=left;verticalAlign=middle;spacingLeft=4;spacingRight=4;overflow=hidden;points=[[0,0.5],[1,0.5]];portConstraint=eastwest;rotatable=0;whiteSpace=wrap;html=1;" parent="SvjpMgCOooim5OPrCzL7-1786" vertex="1">
          <mxGeometry y="30" width="170" height="60" as="geometry" />
        </mxCell>
        <mxCell id="SvjpMgCOooim5OPrCzL7-1790" value="New York University" style="swimlane;fontStyle=0;childLayout=stackLayout;horizontal=1;startSize=30;horizontalStack=0;resizeParent=1;resizeParentMax=0;resizeLast=0;collapsible=1;marginBottom=0;whiteSpace=wrap;html=1;" parent="1" vertex="1">
          <mxGeometry x="1040" y="460" width="170" height="150" as="geometry">
            <mxRectangle x="710" y="500" width="60" height="30" as="alternateBounds" />
          </mxGeometry>
        </mxCell>
        <mxCell id="SvjpMgCOooim5OPrCzL7-1791" value="&lt;span style=&quot;border-color: var(--border-color);&quot;&gt;ZACHARY FERGUSON&lt;br&gt;&lt;br&gt;TESEO SCHNEIDER&lt;br&gt;&lt;br&gt;DENIS ZORIN &lt;br&gt;&lt;br&gt;DANIELE PANOZZO&lt;br&gt;&lt;/span&gt;" style="text;strokeColor=none;fillColor=none;align=left;verticalAlign=top;spacingLeft=4;spacingRight=4;overflow=hidden;points=[[0,0.5],[1,0.5]];portConstraint=eastwest;rotatable=0;whiteSpace=wrap;html=1;horizontal=1;" parent="SvjpMgCOooim5OPrCzL7-1790" vertex="1">
          <mxGeometry y="30" width="170" height="120" as="geometry" />
        </mxCell>
        <mxCell id="SvjpMgCOooim5OPrCzL7-1794" value="Adobe Research" style="swimlane;fontStyle=0;childLayout=stackLayout;horizontal=1;startSize=30;horizontalStack=0;resizeParent=1;resizeParentMax=0;resizeLast=0;collapsible=1;marginBottom=0;whiteSpace=wrap;html=1;" parent="1" vertex="1">
          <mxGeometry x="1040" y="620" width="170" height="90" as="geometry">
            <mxRectangle x="710" y="500" width="60" height="30" as="alternateBounds" />
          </mxGeometry>
        </mxCell>
        <mxCell id="SvjpMgCOooim5OPrCzL7-1795" value="&lt;span style=&quot;border-color: var(--border-color);&quot;&gt;TIMOTHY LANGLOIS&lt;br&gt;&lt;br&gt;DANNY M. KAUFMAN&lt;br&gt;&lt;/span&gt;" style="text;strokeColor=none;fillColor=none;align=left;verticalAlign=top;spacingLeft=4;spacingRight=4;overflow=hidden;points=[[0,0.5],[1,0.5]];portConstraint=eastwest;rotatable=0;whiteSpace=wrap;html=1;horizontal=1;" parent="SvjpMgCOooim5OPrCzL7-1794" vertex="1">
          <mxGeometry y="30" width="170" height="60" as="geometry" />
        </mxCell>
        <mxCell id="SvjpMgCOooim5OPrCzL7-1798" value="2020&lt;br&gt;" style="text;html=1;strokeColor=none;fillColor=none;align=center;verticalAlign=middle;whiteSpace=wrap;rounded=0;" parent="1" vertex="1">
          <mxGeometry x="360" y="360" width="60" height="30" as="geometry" />
        </mxCell>
        <mxCell id="wZY8NO2wIjAyJ-ErL3Ob-1749" value="Tetrahedral Meshing in the Wild" style="rounded=1;whiteSpace=wrap;html=1;shadow=0;labelBackgroundColor=none;strokeColor=none;strokeWidth=3;fillColor=#2F5B7C;fontFamily=Helvetica;fontSize=16;fontColor=#FFFFFF;align=center;fontStyle=1;spacing=5;arcSize=7;perimeterSpacing=2;" vertex="1" parent="1">
          <mxGeometry x="1280" y="-60" width="280" height="80" as="geometry" />
        </mxCell>
        <mxCell id="wZY8NO2wIjAyJ-ErL3Ob-1750" value="New York University&lt;br/&gt;" style="swimlane;fontStyle=0;childLayout=stackLayout;horizontal=1;startSize=30;horizontalStack=0;resizeParent=1;resizeParentMax=0;resizeLast=0;collapsible=1;marginBottom=0;whiteSpace=wrap;html=1;" vertex="1" parent="1">
          <mxGeometry x="1600" y="-60" width="170" height="150" as="geometry">
            <mxRectangle x="1040" y="360" width="60" height="30" as="alternateBounds" />
          </mxGeometry>
        </mxCell>
        <mxCell id="wZY8NO2wIjAyJ-ErL3Ob-1751" value="YIXIN HU&lt;br&gt;&lt;br&gt;XIFENG GAO&lt;br&gt;&lt;br style=&quot;border-color: var(--border-color);&quot;&gt;DENIS ZORIN&lt;br&gt;&lt;br style=&quot;border-color: var(--border-color);&quot;&gt;DANIELE PANOZZO" style="text;strokeColor=none;fillColor=none;align=left;verticalAlign=middle;spacingLeft=4;spacingRight=4;overflow=hidden;points=[[0,0.5],[1,0.5]];portConstraint=eastwest;rotatable=0;whiteSpace=wrap;html=1;" vertex="1" parent="wZY8NO2wIjAyJ-ErL3Ob-1750">
          <mxGeometry y="30" width="170" height="120" as="geometry" />
        </mxCell>
        <mxCell id="wZY8NO2wIjAyJ-ErL3Ob-1753" value="Adobe Research" style="swimlane;fontStyle=0;childLayout=stackLayout;horizontal=1;startSize=30;horizontalStack=0;resizeParent=1;resizeParentMax=0;resizeLast=0;collapsible=1;marginBottom=0;whiteSpace=wrap;html=1;" vertex="1" parent="1">
          <mxGeometry x="1600" y="140" width="170" height="90" as="geometry">
            <mxRectangle x="1040" y="360" width="60" height="30" as="alternateBounds" />
          </mxGeometry>
        </mxCell>
        <mxCell id="wZY8NO2wIjAyJ-ErL3Ob-1754" value="QINGNAN ZHOU&lt;br&gt;&lt;br&gt;ALEC JACOBSON" style="text;strokeColor=none;fillColor=none;align=left;verticalAlign=top;spacingLeft=4;spacingRight=4;overflow=hidden;points=[[0,0.5],[1,0.5]];portConstraint=eastwest;rotatable=0;whiteSpace=wrap;html=1;horizontal=1;" vertex="1" parent="wZY8NO2wIjAyJ-ErL3Ob-1753">
          <mxGeometry y="30" width="170" height="60" as="geometry" />
        </mxCell>
        <mxCell id="wZY8NO2wIjAyJ-ErL3Ob-1757" value="University of Toronto" style="swimlane;fontStyle=0;childLayout=stackLayout;horizontal=1;startSize=30;horizontalStack=0;resizeParent=1;resizeParentMax=0;resizeLast=0;collapsible=1;marginBottom=0;whiteSpace=wrap;html=1;" vertex="1" parent="1">
          <mxGeometry x="1600" y="260" width="170" height="60" as="geometry">
            <mxRectangle x="1040" y="360" width="60" height="30" as="alternateBounds" />
          </mxGeometry>
        </mxCell>
        <mxCell id="wZY8NO2wIjAyJ-ErL3Ob-1758" value="QINGNAN ZHOU" style="text;strokeColor=none;fillColor=none;align=left;verticalAlign=top;spacingLeft=4;spacingRight=4;overflow=hidden;points=[[0,0.5],[1,0.5]];portConstraint=eastwest;rotatable=0;whiteSpace=wrap;html=1;horizontal=1;" vertex="1" parent="wZY8NO2wIjAyJ-ErL3Ob-1757">
          <mxGeometry y="30" width="170" height="30" as="geometry" />
        </mxCell>
        <mxCell id="wZY8NO2wIjAyJ-ErL3Ob-1759" value="2018" style="text;html=1;strokeColor=none;fillColor=none;align=center;verticalAlign=middle;whiteSpace=wrap;rounded=0;" vertex="1" parent="1">
          <mxGeometry x="360" y="-60" width="60" height="30" as="geometry" />
        </mxCell>
      </root>
    </mxGraphModel>
  </diagram>
</mxfile>
